<?xml version="1.0" encoding="UTF-8"?>
<svg xmlns="http://www.w3.org/2000/svg" width="600" height="84" viewBox="0 0 600 84" fill="none">
  <path d="M123.993 31.4707H114.937V67.2927H123.993V31.4707Z" fill="#242E3B"></path>
  <path d="M98.5283 39.5661V49.3588C98.5283 55.0304 98.4015 58.6212 99.3987 59.5146C100.603 60.5982 102.782 60.431 104.166 60.431L106.547 60.3849V67.9981C105.902 67.9981 103.219 67.9992 102.876 67.9981C101.196 67.9932 99.7273 68.0047 98.1478 67.7568C96.0208 67.4225 93.9168 66.6271 92.3546 65.1458C88.527 61.5089 89.409 55.7393 89.409 50.9957C89.409 47.8717 89.409 44.742 89.409 41.618C89.409 41.5085 89.409 39.5661 89.409 39.5661H83.1545V32.1308H89.409V20.9951H98.5283V32.1308H106.547V39.5661H98.5283Z" fill="#242E3B"></path>
  <path d="M115.557 27.9117C114.496 26.8972 113.971 25.6407 113.971 24.1306C113.971 22.6205 114.496 21.364 115.557 20.3496C116.612 19.3409 117.937 18.8337 119.534 18.8337C121.131 18.8337 122.457 19.3409 123.512 20.3496C124.566 21.364 125.097 22.6263 125.097 24.1306C125.097 25.6407 124.566 26.903 123.512 27.9117C122.457 28.9261 121.131 29.4333 119.534 29.4333C117.937 29.4333 116.612 28.9261 115.557 27.9117Z" fill="#242E3B"></path>
  <path d="M187.404 35.9693C190.073 38.638 191.405 42.3614 191.405 47.1396V67.9469H182.441V48.3615C182.441 45.5891 181.738 43.4623 180.325 41.9867C178.919 40.517 176.999 39.7792 174.561 39.7792C172.123 39.7792 170.192 40.517 168.768 41.9867C167.332 43.4565 166.623 45.5833 166.623 48.3615V67.9526H157.66V48.3615C157.66 45.5891 156.956 43.4623 155.544 41.9867C154.138 40.517 152.212 39.7792 149.78 39.7792C147.307 39.7792 145.353 40.517 143.923 41.9867C142.493 43.4565 141.779 45.5833 141.779 48.3615V67.9526H132.815V31.9692H141.779V36.7705C142.932 35.2777 144.413 34.1018 146.229 33.2488C148.045 32.3958 150.039 31.9692 152.218 31.9692C154.997 31.9692 157.469 32.5571 159.648 33.733C161.827 34.9088 163.511 36.5803 164.704 38.759C165.857 36.7071 167.534 35.0644 169.73 33.8252C171.927 32.5917 174.313 31.9692 176.873 31.9692C181.225 31.9692 184.735 33.3007 187.404 35.9693Z" fill="#242E3B"></path>
  <path d="M232.471 52.6036H206.987C207.194 55.1223 208.076 57.0936 209.627 58.5172C211.177 59.9409 213.085 60.6556 215.351 60.6556C218.619 60.6556 220.948 59.2492 222.337 56.4365H231.837C230.828 59.7968 228.903 62.5519 226.05 64.7075C223.196 66.869 219.697 67.9468 215.541 67.9468C212.186 67.9468 209.177 67.2033 206.514 65.7162C203.851 64.2291 201.776 62.1196 200.283 59.3933C198.79 56.667 198.052 53.52 198.052 49.9522C198.052 46.3498 198.784 43.1797 200.254 40.4535C201.724 37.7272 203.776 35.6292 206.416 34.1652C209.056 32.6954 212.1 31.9634 215.541 31.9634C218.856 31.9634 221.824 32.6781 224.447 34.1017C227.07 35.5254 229.105 37.5543 230.552 40.171C231.999 42.7936 232.725 45.8023 232.725 49.1971C232.719 50.4652 232.633 51.5949 232.471 52.6036ZM223.6 46.6899C223.559 44.4247 222.741 42.6149 221.144 41.2489C219.547 39.8828 217.599 39.2027 215.293 39.2027C213.114 39.2027 211.275 39.8655 209.788 41.1855C208.301 42.5054 207.384 44.344 207.05 46.6899H223.6Z" fill="#242E3B"></path>
  <path d="M287.671 65.7279C284.996 64.2466 282.898 62.1429 281.37 59.4281C279.843 56.7134 279.082 53.5778 279.082 50.0273C279.082 46.4768 279.866 43.3471 281.434 40.6266C283.002 37.9118 285.14 35.8138 287.861 34.3268C290.576 32.8455 293.603 32.1019 296.946 32.1019C300.289 32.1019 303.316 32.8455 306.031 34.3268C308.746 35.8138 310.89 37.9118 312.458 40.6266C314.026 43.3413 314.81 46.4768 314.81 50.0273C314.81 53.5778 314.003 56.7134 312.4 59.4281C310.792 62.1429 308.619 64.2409 305.881 65.7279C303.143 67.2092 300.088 67.9528 296.698 67.9528C293.349 67.9528 290.34 67.215 287.671 65.7279ZM301.177 59.1514C302.572 58.3791 303.69 57.2206 304.526 55.6759C305.362 54.1312 305.777 52.2522 305.777 50.0331C305.777 46.7362 304.912 44.1944 303.177 42.4191C301.442 40.6439 299.321 39.7563 296.819 39.7563C294.317 39.7563 292.213 40.6439 290.519 42.4191C288.824 44.1944 287.982 46.7362 287.982 50.0331C287.982 53.3358 288.807 55.8718 290.455 57.6471C292.104 59.4223 294.185 60.31 296.692 60.31C298.278 60.31 299.776 59.9238 301.177 59.1514Z" fill="#242E3B"></path>
  <path d="M327.649 65.7279C324.974 64.2466 322.876 62.1429 321.348 59.4281C319.82 56.7134 319.06 53.5778 319.06 50.0273C319.06 46.4768 319.844 43.3471 321.411 40.6266C322.979 37.9118 325.118 35.8138 327.839 34.3268C330.554 32.8455 333.58 32.1019 336.924 32.1019C340.267 32.1019 343.293 32.8455 346.008 34.3268C348.723 35.8138 350.868 37.9118 352.436 40.6266C354.004 43.3413 354.788 46.4768 354.788 50.0273C354.788 53.5778 353.981 56.7134 352.378 59.4281C350.77 62.1429 348.597 64.2409 345.858 65.7279C343.12 67.2092 340.065 67.9528 336.676 67.9528C333.327 67.9528 330.323 67.215 327.649 65.7279ZM341.155 59.1514C342.55 58.3791 343.668 57.2206 344.504 55.6759C345.34 54.1312 345.755 52.2522 345.755 50.0331C345.755 46.7362 344.89 44.1944 343.155 42.4191C341.42 40.6439 339.299 39.7563 336.797 39.7563C334.289 39.7563 332.191 40.6439 330.496 42.4191C328.801 44.1944 327.96 46.7362 327.96 50.0331C327.96 53.3358 328.784 55.8718 330.433 57.6471C332.081 59.4223 334.162 60.31 336.67 60.31C338.261 60.31 339.754 59.9238 341.155 59.1514Z" fill="#242E3B"></path>
  <path d="M375.331 33.1911C376.115 33.0181 376.916 32.9202 377.712 32.8683C378.473 32.8164 379.239 32.8106 380 32.8222C380.381 32.8279 380.761 32.8395 381.147 32.851C381.343 32.8567 381.914 32.851 381.914 32.851C381.914 32.851 381.914 33.364 381.914 33.4965C381.914 33.7905 381.914 34.0844 381.914 34.3726C381.914 35.8943 381.914 37.4159 381.914 38.9376C381.914 39.3698 381.914 39.7906 381.914 40.2229C381.914 40.2229 379.205 40.2402 378.957 40.2402C377.885 40.2402 376.801 40.5399 376.374 40.6725C374.945 41.1278 373.613 42.0442 372.587 43.1509C371.232 44.6149 370.985 46.3844 370.985 48.2864C370.985 48.4305 370.979 49.9522 370.979 50.0963L370.985 67.9352H361.865V32.1132H370.985C370.985 32.1132 370.985 35.5081 370.985 35.5773C370.985 35.4447 371.267 35.243 371.354 35.1623C371.515 35.0066 371.688 34.8626 371.867 34.73C372.23 34.4476 372.622 34.2055 373.037 33.998C373.757 33.6233 374.535 33.364 375.331 33.1911Z" fill="#242E3B"></path>
  <path d="M239.659 41.7679C240.011 41.082 240.426 40.425 240.91 39.8082C242.783 37.3875 245.424 35.6064 248.3 34.5574C253.211 32.7706 259.327 33.2951 262.878 35.4912C262.867 31.3873 262.884 25.174 262.878 21.0701H271.992C271.998 21.0701 272.003 21.0759 272.003 21.0817V67.9414C272.003 67.9471 271.998 67.9529 271.992 67.9529H263.576C263.564 67.9529 262.884 67.9414 262.884 67.9241C262.884 66.3217 262.884 66.2468 262.878 64.6272C260.169 68.6503 250.133 69.1056 244.864 65.4687C242.709 63.9816 240.933 61.9355 239.694 59.63C237.947 56.3792 237.336 52.5866 237.722 48.9323C237.982 46.4481 238.518 43.9697 239.659 41.7679ZM262.423 45.5432C261.627 44.0965 260.555 42.9841 259.206 42.2118C257.857 41.4394 256.411 41.0532 254.86 41.0532C253.315 41.0532 251.886 41.4336 250.577 42.1829C249.268 42.938 248.208 44.0389 247.395 45.4856C246.582 46.9323 246.173 48.6499 246.173 50.6327C246.173 52.6154 246.576 54.3503 247.395 55.8374C248.208 57.3244 249.28 58.4657 250.606 59.2611C251.937 60.0565 253.35 60.4484 254.86 60.4484C256.405 60.4484 257.857 60.0622 259.206 59.2899C260.555 58.5175 261.627 57.4051 262.423 55.9584C263.213 54.5117 263.61 52.771 263.61 50.7479C263.61 48.7306 263.213 46.9899 262.423 45.5432Z" fill="#242E3B"></path>
  <path d="M41.711 43.64C43.3219 43.64 44.6278 42.3342 44.6278 40.7235C44.6278 39.1128 43.3219 37.807 41.711 37.807C40.1001 37.807 38.7942 39.1128 38.7942 40.7235C38.7942 42.3342 40.1001 43.64 41.711 43.64Z" fill="#242E3B"></path>
  <path d="M48.9316 56.182L48.9259 66.9084C48.9259 67.9805 47.8133 69.2658 46.6316 69.4848C39.3684 70.8336 17.5788 72.5397 17.5788 72.5397C16.5873 72.6722 16.5873 73.9172 17.5846 73.9172H54.9555C56.656 73.9172 58.0394 72.8797 58.0394 71.6059V51.5248L48.9316 56.182Z" fill="#242E3B"></path>
  <path d="M17.6841 14.8155C17.6841 14.8155 39.2834 16.5965 46.391 17.853C47.8955 18.1182 48.9273 19.1096 48.9273 20.2508V26.3835V29.2135V43.6345L58.0409 38.7987V33.0061V32.153V15.7665C58.0409 14.4927 56.6632 13.4553 54.9569 13.4553H17.7129C16.6176 13.5878 16.6753 14.6368 17.6841 14.8155Z" fill="#242E3B"></path>
  <path d="M15.0107 46.6776C15.2989 46.4067 14.9531 45.9456 14.613 46.1531C9.09064 49.5018 -3.30868 58.1591 0.830192 62.4531C2.50764 64.1938 6.31218 64.286 8.39314 64.2456C12.6242 64.1765 17.5932 63.4387 21.6744 62.3205C27.0469 60.845 32.3905 59.2888 37.6304 57.3521C42.6166 55.5077 47.4588 53.3636 52.2317 50.9889C57.218 48.5047 62.1523 45.6343 66.6659 42.2855C66.8273 42.1703 66.9829 42.0492 67.1386 41.9282C68.9659 40.5391 70.701 39.0002 72.2401 37.2653C73.6697 35.6514 75.5373 33.5303 74.5574 31.1499C73.7619 29.2133 70.4704 28.6945 68.8679 28.5908C68.0378 28.5389 67.104 28.5158 66.2739 28.6081C66.1298 28.6253 65.8877 28.6715 65.8934 28.7464C65.8992 28.902 66.2451 28.8905 66.7927 29.1153C67.7611 29.5072 68.7353 30.2277 68.7814 31.3343C68.816 32.1586 68.4471 33.0174 68.0263 33.709C67.5709 34.4583 67.0982 34.9943 66.5621 35.588C65.5418 36.7235 64.1526 37.9281 62.7461 38.9483C56.4686 43.4959 51.3325 45.8418 50.6984 46.1415C42.5186 49.9802 32.4827 53.4616 27.5023 54.5624C23.9225 55.3521 20.2564 55.9746 16.5556 55.8593C15.0453 55.8132 12.0305 55.2541 11.6673 53.6402C11.0044 50.7641 13.2353 48.3433 15.0107 46.6776Z" fill="#242E3B"></path>
  <path d="M469.51 28.8878H443.098V55.3001H469.51V28.8878Z" fill="#FF5D5D"></path>
  <path d="M497.778 28.8878H471.366V55.3001H497.778V28.8878Z" fill="#10AF13"></path>
  <path d="M497.636 27.1744H471.366V0.762146C485.929 0.762146 497.636 12.612 497.636 27.1744Z" fill="#D66AFF"></path>
  <path d="M443.098 27.1744H469.51V0.762146C454.947 0.762146 443.098 12.612 443.098 27.1744Z" fill="#10AF13"></path>
  <path d="M497.635 56.7277H471.365V83.14C485.928 83.14 497.635 71.2901 497.635 56.7277Z" fill="#FFDD2C"></path>
  <path d="M443.098 56.7277H469.51V83.14C454.947 83.14 443.098 71.2901 443.098 56.7277Z" fill="#10AF13"></path>
  <path d="M438.101 83.5681V57.1559H411.688C411.688 71.7183 423.538 83.5681 438.101 83.5681Z" fill="#10AF13"></path>
  <path d="M438.101 29.1732H411.688V55.5855H438.101V29.1732Z" fill="#10AF13"></path>
  <path d="M438.101 27.46H411.688V1.04773C426.251 1.04773 438.101 12.8975 438.101 27.46Z" fill="#43C4FF"></path>
  <path d="M522.62 9.89941L516.481 21.7492V27.3172H511.627V21.7492L505.488 9.89941H511.056L514.054 16.4668L517.052 9.89941H522.62Z" fill="#242E3B"></path>
  <path d="M528.759 13.6114V16.4668H534.327V20.1788H528.759V23.3197H535.041V27.1744H523.905V9.89941H535.041V13.6114H528.759Z" fill="#242E3B"></path>
  <path d="M548.318 24.3191H542.179L541.18 27.1744H536.183L542.465 9.89941H548.033L554.314 27.1744H549.175L548.318 24.3191ZM547.033 20.6071L545.177 15.0391L543.321 20.6071H547.033Z" fill="#242E3B"></path>
  <path d="M564.452 27.1744L561.025 20.7498H560.597V27.1744H555.743V9.89941H563.309C564.737 9.89941 565.879 10.185 566.879 10.6133C567.878 11.0416 568.592 11.7554 569.02 12.612C569.448 13.4686 569.734 14.468 569.734 15.4674C569.734 16.6096 569.448 17.7517 568.735 18.6083C568.021 19.4649 567.164 20.1788 565.879 20.4643L569.877 27.1744H564.452ZM560.597 17.4662H563.024C564.309 17.4662 565.023 16.8951 565.023 15.6102C565.023 15.0391 564.88 14.6108 564.452 14.3252C564.166 14.0397 563.595 13.8969 562.881 13.8969H560.454V17.4662H560.597Z" fill="#242E3B"></path>
  <path d="M583.868 24.7474C583.439 25.4612 582.725 26.1751 581.726 26.6034C580.727 27.0317 579.585 27.3172 578.3 27.3172C576.301 27.3172 574.588 26.8889 573.303 25.8895C572.018 24.8902 571.304 23.6052 571.161 21.7492H576.301C576.301 22.3203 576.586 22.7486 576.872 23.0342C577.157 23.3197 577.586 23.4625 578.014 23.4625C578.442 23.4625 578.728 23.3197 579.013 23.1769C579.299 23.0342 579.299 22.6059 579.299 22.3203C579.299 21.7492 579.013 21.4637 578.585 21.1782C578.157 20.8926 577.3 20.6071 576.301 20.1788C575.159 19.7505 574.302 19.4649 573.588 19.0366C572.874 18.6083 572.303 18.18 571.732 17.4662C571.161 16.7523 571.018 15.8957 571.018 14.7536C571.018 13.6114 571.304 12.7548 571.875 12.041C572.446 11.3271 573.16 10.6133 574.159 10.3277C575.159 9.89942 576.158 9.75665 577.443 9.75665C579.442 9.75665 581.012 10.185 582.154 11.1843C583.297 12.1837 584.01 13.4686 584.153 15.1819H579.013C579.013 14.6108 578.728 14.1825 578.442 14.0397C578.157 13.7542 577.871 13.6114 577.443 13.6114C577.015 13.6114 576.729 13.7542 576.586 13.8969C576.444 14.0397 576.301 14.3253 576.301 14.7536C576.301 15.1819 576.586 15.6102 577.015 15.8957C577.443 16.1813 578.157 16.4668 579.156 16.8951C580.298 17.3234 581.155 17.6089 581.869 18.0372C582.583 18.4656 583.154 18.8939 583.725 19.6077C584.296 20.3215 584.439 21.3209 584.439 22.4631C584.581 23.1769 584.296 24.0335 583.868 24.7474Z" fill="#242E3B"></path>
  <path d="M517.766 47.8758H511.627L510.627 50.7311H505.63L511.912 33.4561H517.48L523.762 50.7311H518.622L517.766 47.8758ZM516.481 44.3066L514.625 38.7386L512.769 44.3066H516.481Z" fill="#242E3B"></path>
  <path d="M541.18 50.7311H536.326L529.901 41.0229V50.7311H525.047V33.4561H529.901L536.326 43.3072V33.4561H541.18V50.7311Z" fill="#242E3B"></path>
  <path d="M559.739 50.7311H554.885L548.46 41.0229V50.7311H543.606V33.4561H548.46L554.885 43.3072V33.4561H559.739V50.7311Z" fill="#242E3B"></path>
  <path d="M567.306 33.4561V50.7311H562.452V33.4561H567.306Z" fill="#242E3B"></path>
  <path d="M573.874 33.4561L577.729 45.877L581.583 33.4561H586.723L580.869 50.7311H574.73L568.734 33.4561H573.874Z" fill="#242E3B"></path>
  <path d="M598.287 40.309V44.3065H587.151V40.309H598.287Z" fill="#242E3B"></path>
  <path d="M510.341 60.8679V63.7233H515.909V67.4352H510.341V70.5762H516.623V74.4309H505.487V57.0131H516.623V60.8679H510.341Z" fill="#242E3B"></path>
  <path d="M527.759 74.2882L524.333 67.8636H523.905V74.2882H519.051V57.0131H526.617C528.045 57.0131 529.187 57.2987 530.187 57.727C531.186 58.1553 531.9 58.8691 532.328 59.7257C532.756 60.5823 533.042 61.5817 533.042 62.5811C533.042 63.7233 532.756 64.8654 532.043 65.722C531.329 66.5786 530.472 67.2925 529.187 67.578L533.185 74.2882H527.759ZM523.762 64.7226H526.189C527.474 64.7226 528.188 64.1516 528.188 62.8666C528.188 62.2956 528.045 61.8673 527.617 61.5817C527.331 61.2962 526.76 61.1534 526.046 61.1534H523.619V64.7226H523.762Z" fill="#242E3B"></path>
  <path d="M547.033 72.0039C546.605 72.7177 545.891 73.4315 544.892 73.8598C543.892 74.2882 542.75 74.5737 541.465 74.5737C539.467 74.5737 537.753 74.1454 536.468 73.146C535.184 72.1466 534.47 70.7189 534.47 69.0057H539.609C539.609 69.5768 539.895 70.0051 540.18 70.2906C540.466 70.5762 540.894 70.7189 541.323 70.7189C541.751 70.7189 542.036 70.5762 542.322 70.4334C542.607 70.2906 542.607 69.8623 542.607 69.5768C542.607 69.0057 542.322 68.7202 541.894 68.4346C541.465 68.1491 540.609 67.8636 539.609 67.4352C538.467 67.0069 537.611 66.7214 536.897 66.2931C536.183 65.8648 535.612 65.4365 535.041 64.7226C534.47 64.0088 534.327 63.1522 534.327 62.01C534.327 60.8679 534.612 60.0113 535.184 59.2974C535.755 58.5836 536.468 57.8697 537.468 57.5842C538.467 57.1559 539.467 57.0131 540.752 57.0131C542.75 57.0131 544.321 57.4414 545.463 58.4408C546.605 59.4402 547.319 60.7251 547.462 62.4383H542.322C542.322 61.8673 542.036 61.439 541.751 61.2962C541.465 61.0107 541.18 60.8679 540.752 60.8679C540.323 60.8679 540.038 61.0106 539.895 61.1534C539.752 61.2962 539.609 61.5817 539.609 62.01C539.609 62.4383 539.895 62.8666 540.323 63.1522C540.751 63.4377 541.465 63.7233 542.465 64.1516C543.607 64.5799 544.463 64.8654 545.177 65.2937C545.891 65.722 546.462 66.1503 547.033 66.8642C547.604 67.578 547.747 68.5774 547.747 69.7195C547.747 70.2906 547.462 71.1472 547.033 72.0039Z" fill="#242E3B"></path>
  <path d="M560.738 71.4328H554.599L553.6 74.2882H548.603L554.885 57.0131H560.453L566.735 74.2882H561.595L560.738 71.4328ZM559.596 67.8636L557.74 62.2956L555.884 67.8636H559.596Z" fill="#242E3B"></path>
  <path d="M577.014 74.2882L573.588 67.8636H573.017V74.2882H568.163V57.0131H575.729C577.157 57.0131 578.299 57.2987 579.299 57.727C580.298 58.1553 581.012 58.8691 581.44 59.7257C581.868 60.5823 582.154 61.5817 582.154 62.5811C582.154 63.7233 581.868 64.8654 581.155 65.722C580.441 66.5786 579.584 67.2925 578.299 67.578L582.297 74.2882H577.014ZM573.017 64.7226H575.444C576.729 64.7226 577.443 64.1516 577.443 62.8666C577.443 62.2956 577.3 61.8673 576.871 61.5817C576.586 61.2962 576.015 61.1534 575.301 61.1534H573.017V64.7226Z" fill="#242E3B"></path>
  <path d="M600 57.0131L593.861 68.8629V74.4309H589.007V68.8629L582.868 57.0131H588.436L591.577 63.5805L594.575 57.0131H600Z" fill="#242E3B"></path>
</svg>
